# xmcd
#
# Track frame offsets:
#	150
#	13292
#	27512
#	41135
#	54467
#	65927
#	81412
#	93375
#	108367
#	126240
#	145830
#	160080
#	180440
#	203135
#
# Disc length: 2939 seconds
#
# Revision: 3
# Processed by: cddbd v1.5.1PL2 Copyright (c) Steve Scherf et al.
# Submitted via: audiograbber 1.83.01
#
DISCID=c90b790e
DTITLE=Big Joe and the Dynaflows - I'm Still Swingin'
DYEAR=1998
DGENRE=R&B
TTITLE0=Playgirl
TTITLE1=Bad Luck Blues
TTITLE2=Early Every Morning
TTITLE3=gumbo Blues
TTITLE4=One Night of Sin
TTITLE5=On The Other Hand
TTITLE6=My Baby Pleases Me
TTITLE7='Lil Phil's Shuffle
TTITLE8=Big Long Buick
TTITLE9=I'll Always Love You
TTITLE10=How Come People Act Like That
TTITLE11=Let's Get High
TTITLE12=Lex Meets Big
TTITLE13=Lemonade
EXTD=
EXTT0=
EXTT1=
EXTT2=
EXTT3=
EXTT4=
EXTT5=
EXTT6=
EXTT7=
EXTT8=
EXTT9=
EXTT10=
EXTT11=
EXTT12=
EXTT13=
PLAYORDER=
